<svg width="334" height="85" viewBox="0 0 334 85" fill="none" xmlns="http://www.w3.org/2000/svg">
<path fill-rule="evenodd" clip-rule="evenodd" d="M46.27 43.7895C35.77 50.4895 25.27 57.9895 14.77 66.1895C101.87 -12.3105 187.37 -27.6105 270.47 56.8895C274.87 61.2895 279.27 65.9895 283.57 70.9895C279.17 66.5895 274.87 62.3895 270.47 58.4895V71.8863C279.825 73.8256 289.158 76.0556 298.47 78.5891C204.97 64.6891 104.87 68.3891 0.170105 84.1891C15.5682 80.3205 30.9361 76.8858 46.27 73.936V43.7895ZM48.67 73.4782C53.1729 72.6267 57.673 71.8172 62.17 71.0512V34.3895C57.67 36.8895 53.17 39.4895 48.67 42.2895V73.4782ZM64.57 70.6464C71.5441 69.482 78.5109 68.4226 85.47 67.4729V22.9895C78.47 25.9895 71.57 29.2895 64.57 33.0895V70.6464ZM87.87 67.1498C94.7778 66.232 101.678 65.423 108.57 64.7275V14.7895C101.37 16.8895 94.17 19.3895 86.97 22.3895H87.87V67.1498ZM110.97 64.4898C119.148 63.6957 127.315 63.0622 135.47 62.5974V9.18948C127.37 10.1895 119.17 11.8895 110.97 14.0895V64.4898ZM137.87 62.4655C143.008 62.1934 148.142 61.9886 153.27 61.8532V8.08948C148.07 8.08948 142.97 8.38948 137.87 8.88948V62.4655ZM155.67 61.7948C161.577 61.6637 167.477 61.6249 173.37 61.6815V9.38948C167.47 8.58948 161.57 8.18948 155.67 8.08948V61.7948ZM175.77 61.7099C180.875 61.7815 185.975 61.925 191.07 62.1424V12.8895C185.97 11.4895 180.87 10.4895 175.77 9.68948V61.7099ZM193.47 62.2504C200.112 62.5643 206.746 63.0045 213.37 63.5754V20.6895C206.77 17.7895 200.07 15.4895 193.47 13.5895V62.2504ZM215.77 63.788C221.176 64.2799 226.576 64.8593 231.97 65.5285V29.9895C226.57 26.8895 221.17 24.0895 215.77 21.6895V63.788ZM234.37 65.8322C239.777 66.5301 245.177 67.3186 250.57 68.2002V42.1895C245.17 38.1895 239.77 34.5895 234.37 31.3895V65.8322ZM252.97 68.5987C258.009 69.4486 263.043 70.3801 268.07 71.3952V56.8895H268.77C263.57 52.1895 258.27 47.8895 252.97 43.8895V68.5987Z" fill="white" fill-opacity="0.05"/>
</svg>
